#!OML:ASF F:\VICON\USERDATA\INSTALL\rory3\rory3.ASF
:FULLY-SPECIFIED
:DEGREES
162
root -0.249703 16.0052 -15.5891 -159.76 4.2325 180.972
lowerback -3.47212 -0.118452 0.472656
upperback -5.30525 0.1662 -0.328628
thorax -3.51259 0.204739 -0.611326
lowerneck -5.49953 -1.71531 0.0350541
upperneck 33.6871 1.3977 0.800295
head 11.9292 2.129 0.75108
rclavicle 1.41634e-014 5.96354e-015
rhumerus 171.183 -30.0174 -239.557
rradius 10.0827
rwrist 91.9793
rhand -36.5262 41.49
rfingers 7.12502
rthumb -9.6175 11.7296
lclavicle 1.41634e-014 5.96354e-015
lhumerus -27.7924 51.2696 46.5147
lradius 32.5443
lwrist 48.8497
lhand -9.82234 20.4561
lfingers 7.12502
lthumb 16.1547 49.8029
rfemur -58.8516 0.401166 18.4979
rtibia 77.1795
rfoot -8.75601 -18.2791
rtoes 3.51798
lfemur -40.0006 4.30427 -33.157
ltibia 47.745
lfoot -46.5801 24.4047
ltoes 8.77524
163
root -0.222892 15.9789 -15.5842 -159.977 4.28552 181.29
lowerback -2.51592 -0.0883514 0.391594
upperback -5.42665 0.20492 -0.170517
thorax -4.17817 0.224127 -0.407741
lowerneck -4.78403 -1.67804 0.0247461
upperneck 33.4064 1.50186 0.763997
head 11.6683 2.18389 0.738091
rclavicle 3.23025e-015 1.98785e-016
rhumerus 172.034 -38.237 -241.786
rradius 9.48304
rwrist 82.3311
rhand -36.8786 41.5832
rfingers 7.12502
rthumb -9.95752 11.8387
lclavicle 3.23025e-015 1.98785e-016
lhumerus -27.0832 52.9684 48.4014
lradius 30.2421
lwrist 46.4962
lhand -10.3183 20.5925
lfingers 7.12502
lthumb 15.6772 49.9774
rfemur -59.9952 2.00375 18.3637
rtibia 75.8755
rfoot -9.09395 -19.0255
rtoes 5.99859
lfemur -40.3296 4.99066 -32.8367
ltibia 48.43
lfoot -46.1318 24.5967
ltoes 7.35234
164
root -0.22474 15.9438 -15.5711 -160.208 3.89368 181.134
lowerback -1.68897 -0.136076 0.507861
upperback -4.87739 0.0668202 -0.27367
thorax -4.07306 0.117617 -0.575342
lowerneck -5.99017 -1.4673 0.277327
upperneck 33.1598 1.55652 0.632784
head 11.8149 2.13616 0.644974
rclavicle -1.04362e-014 -2.98177e-015
rhumerus 171.084 -45.6392 -242.913
rradius 9.28652
rwrist 73.0261
rhand -36.8175 41.2485
rfingers 7.12502
rthumb -9.8986 11.5012
lclavicle -1.04362e-014 -2.98177e-015
lhumerus -24.1939 51.2478 53.715
lradius 30.8241
lwrist 48.2983
lhand -13.2176 21.8898
lfingers 7.12502
lthumb 12.8834 51.4722
rfemur -61.0217 2.45795 17.8702
rtibia 74.4627
rfoot -9.26874 -19.3244
rtoes 7.8678
lfemur -40.4855 5.45596 -33.0867
ltibia 48.9264
lfoot -44.6868 25.5183
ltoes 3.71709
165
root -0.228051 15.9097 -15.5658 -160.512 3.47461 181.364
lowerback -1.27209 -0.142465 0.961949
upperback -3.96559 -0.0234471 -0.244349
thorax -3.36242 0.0256192 -0.793735
lowerneck -7.57867 -1.29123 0.254691
upperneck 32.8655 1.4415 0.796098
head 12.0201 1.98911 0.689806
rclavicle -3.08116e-015 3.97569e-016
rhumerus 168.656 -52.8491 -242.683
rradius 9.14726
rwrist 64.1214
rhand -36.6432 40.8285
rfingers 7.12502
rthumb -9.73041 11.0733
lclavicle -3.08116e-015 3.97569e-016
lhumerus -20.6035 50.0696 59.3328
lradius 30.9994
lwrist 49.2242
lhand -11.7731 22.4268
lfingers 7.12502
lthumb 14.2757 51.9162
rfemur -61.8022 3.03297 17.7015
rtibia 72.8638
rfoot -10.4365 -19.0296
rtoes 9.78422
lfemur -40.5661 5.9482 -32.8805
ltibia 49.5706
lfoot -43.8051 25.604
ltoes 1.84218
166
root -0.271245 15.928 -15.6607 -160.563 2.41732 182.002
lowerback -2.20559 -0.345782 2.52734
upperback -3.44974 -0.334255 -0.138545
thorax -2.32419 -0.16782 -1.56105
lowerneck -7.81601 -1.25524 0.144067
upperneck 32.6828 1.3868 0.931101
head 11.9931 1.93769 0.746928
rclavicle -5.2181e-015 -1.39149e-015
rhumerus 166.612 -60.6703 -242.483
rradius 8.86597
rwrist 55.9363
rhand -36.7159 40.2893
rfingers 7.12502
rthumb -9.80058 10.5373
lclavicle -5.2181e-015 -1.39149e-015
lhumerus -18.469 49.8238 63.1589
lradius 29.9712
lwrist 48.0231
lhand -13.588 23.2087
lfingers 7.12502
lthumb 12.5264 52.8132
rfemur -61.9024 2.26176 18.1996
rtibia 70.9611
rfoot -11.7069 -17.933
rtoes 10.1518
lfemur -40.1001 6.40886 -32.3337
ltibia 49.9562
lfoot -44.086 24.1525
ltoes 2.64872
167
root -0.253225 15.8907 -15.657 -160.988 2.3148 181.887
lowerback -1.4999 -0.337891 2.16343
upperback -2.80379 -0.365234 -0.186342
thorax -2.05137 -0.18954 -1.40343
lowerneck -9.0233 -1.11473 0.462382
upperneck 32.4952 1.30773 0.913316
head 12.1686 1.86365 0.671007
rclavicle 1.04859e-014 -7.95139e-016
rhumerus 161.59 -67.907 -239.486
rradius 8.4346
rwrist 48.2562
rhand -37.1945 39.5848
rfingers 7.12502
rthumb -10.2623 9.85519
lclavicle 1.04859e-014 -7.95139e-016
lhumerus -15.7736 46.5488 68.1277
lradius 30.797
lwrist 49.5348
lhand -15.9089 24.3937
lfingers 7.12502
lthumb 10.288 54.1221
rfemur -62.7869 3.1114 17.7642
rtibia 69.293
rfoot -11.2918 -18.5053
rtoes 9.49049
lfemur -40.0436 7.08651 -32.4497
ltibia 50.4967
lfoot -44.5382 22.67
ltoes 5.42284
168
root -0.228107 15.8497 -15.6674 -161.382 2.21314 181.523
lowerback -0.104488 -0.421597 1.45605
upperback -3.47106 -0.428926 -0.224797
thorax -3.52226 -0.212539 -1.03704
lowerneck -6.99186 -1.36909 -0.0471225
upperneck 32.3328 1.10629 1.52068
head 11.678 1.87173 0.952421
rclavicle 6.90777e-015 0
rhumerus 163.337 -76.5264 -243.375
rradius 8.66632
rwrist 40.2424
rhand -37.2299 39.4402
rfingers 7.12502
rthumb -10.2964 9.71222
lclavicle 6.90777e-015 0
lhumerus -16.7855 41.6804 70.5151
lradius 32.1986
lwrist 51.7848
lhand -18.732 25.7746
lfingers 7.12502
lthumb 7.56383 55.6194
rfemur -63.6261 3.97301 17.0687
rtibia 67.5868
rfoot -10.5533 -19.3248
rtoes 9.25997
lfemur -39.9462 7.72229 -32.7992
ltibia 50.9736
lfoot -44.6241 21.3947
ltoes 7.28864
169
root -0.226464 15.8323 -15.6917 -162.167 1.30757 181.822
lowerback 1.18306 -0.612108 2.08293
upperback -2.87216 -0.698478 -0.263235
thorax -3.64733 -0.383875 -1.40943
lowerneck -8.46519 -1.16826 0.728903
upperneck 32.2805 1.10158 1.26029
head 11.9636 1.85993 0.721089
rclavicle 4.57205e-015 -7.55382e-015
rhumerus 144.279 -83.3709 -226.808
rradius 8.6508
rwrist 32.3241
rhand -37.6888 38.5576
rfingers 7.12502
rthumb -10.7391 8.85208
lclavicle 4.57205e-015 -7.55382e-015
lhumerus -14.476 38.4797 74.5403
lradius 32.7337
lwrist 52.7636
lhand -21.0999 27.4082
lfingers 7.12502
lthumb 5.27793 57.3224
rfemur -63.4898 4.15291 17.2866
rtibia 65.7276
rfoot -10.4736 -19.9807
rtoes 12.1314
lfemur -39.3849 8.06462 -32.2811
ltibia 51.57
lfoot -44.0105 21.4326
ltoes 5.97545
170
root -0.223173 15.8021 -15.7117 -162.391 1.16739 181.596
lowerback 1.56191 -0.543214 1.80505
upperback -2.39081 -0.636007 -0.269034
thorax -3.35657 -0.349339 -1.26082
lowerneck -9.25857 -1.28536 0.247784
upperneck 32.0436 0.729191 1.65495
head 12.0312 1.62696 0.900039
rclavicle 1.14301e-014 2.38542e-015
rhumerus 59.5991 -85.6777 -144.088
rradius 8.52705
rwrist 24.6484
rhand -38.0501 38.2994
rfingers 7.12502
rthumb -11.0876 8.61224
lclavicle 1.14301e-014 2.38542e-015
lhumerus -12.2409 36.4641 78.5776
lradius 32.672
lwrist 52.3567
lhand -20.5667 27.3496
lfingers 7.12502
lthumb 5.79269 57.2504
rfemur -64.306 4.55612 16.7521
rtibia 63.9137
rfoot -9.25116 -20.666
rtoes 13.608
lfemur -39.5035 8.51919 -32.6097
ltibia 52.1642
lfoot -43.3184 22.0657
ltoes 3.96344
